<?xml version="1.0" standalone="no"?>
<!DOCTYPE svg PUBLIC "-//W3C//DTD SVG 20010904//EN"
 "http://www.w3.org/TR/2001/REC-SVG-20010904/DTD/svg10.dtd">
<svg version="1.0" xmlns="http://www.w3.org/2000/svg"
 width="512.000000pt" height="512.000000pt" viewBox="0 0 512.000000 512.000000"
 preserveAspectRatio="xMidYMid meet">

<g transform="translate(0.000000,512.000000) scale(0.100000,-0.100000)"
fill="#000000" stroke="none">
<path d="M1196 5109 c-294 -38 -575 -178 -792 -394 -195 -195 -320 -428 -381
-715 -17 -80 -18 -170 -18 -1440 0 -1511 -5 -1402 70 -1627 67 -200 175 -373
330 -528 155 -155 328 -263 528 -330 225 -75 116 -70 1627 -70 1270 0 1360 1
1440 18 287 61 520 186 715 381 156 156 263 329 330 529 75 225 70 116 70
1627 0 1511 5 1402 -70 1627 -67 200 -175 373 -330 528 -222 222 -497 357
-805 395 -105 12 -2613 12 -2714 -1z m1465 -1249 c87 -16 177 -66 250 -139 79
-80 124 -166 141 -274 l11 -75 136 -4 c124 -3 141 -6 187 -30 60 -32 118 -93
148 -157 21 -46 21 -51 21 -791 l0 -745 -23 -59 c-61 -163 -196 -285 -352
-320 -102 -24 -1138 -24 -1240 0 -156 35 -291 157 -352 320 l-23 59 0 745 c0
740 0 745 21 791 30 64 88 125 148 157 46 24 63 27 186 30 l136 4 12 75 c44
281 310 466 593 413z"/>
<path d="M2470 3604 c-83 -36 -143 -109 -156 -191 l-7 -43 253 0 253 0 -7 43
c-24 150 -200 250 -336 191z"/>
<path d="M1830 3100 c-20 -20 -20 -33 -20 -704 0 -742 -1 -729 56 -803 13 -18
46 -45 72 -60 l47 -28 575 0 575 0 47 28 c26 15 59 42 72 60 57 74 56 61 56
803 0 671 0 684 -20 704 -17 17 -33 20 -125 20 l-105 0 0 -135 c0 -148 -7
-176 -56 -214 -18 -14 -41 -21 -70 -21 -36 0 -51 6 -82 34 l-37 34 -3 151 -3
151 -249 0 -249 0 -3 -151 -3 -151 -37 -34 c-31 -28 -45 -34 -83 -34 -38 0
-52 6 -83 34 l-37 34 -3 151 -3 151 -105 0 c-91 0 -107 -3 -124 -20z"/>
</g>
</svg>
